<svg version="1.1" preserveAspectRatio="none" xmlns="http://www.w3.org/2000/svg" width="500" height="500" viewBox="0 0 500 500"><rect width="100%" height="100%" fill="#070707" fill-opacity="1"/><svg viewBox="97.569 194.5946 371.8802 250.1757" width="333" height="224.01974641295772" x="83.5px" y="137.9901px" xmlns="http://www.w3.org/2000/svg" xmlns:xlink="http://www.w3.org/1999/xlink" preserveAspectRatio="none"><defs></defs><style>.companyName {fill:#F7DC5F;fill-opacity:1;}.icon1 {fill:#F7DC5F;fill-opacity:1;}.icon2 {fill:#8C7848;fill-opacity:1;}.icon3 {fill:#534538;fill-opacity:1;}.icon3-str {stroke:#534538;stroke-opacity:1;}</style><g opacity="1" transform="rotate(0 97.569 394.7703)">
<svg width="371.8802" height="50" x="97.569" y="394.7703" version="1.1" preserveAspectRatio="none" viewBox="1.4 -33.2 324.28000000000003 43.6">
  <g transform="matrix(1 0 0 1 0 0)" class="companyName"><path id="id-D6z1nYkh15" d="M11.48-27.20L11.48-17.04Q14.04-17.04 15.60-17.20Q17.16-17.36 18.02-17.86Q18.88-18.36 19.24-19.32Q19.60-20.28 19.80-21.92L19.80-21.92L21.28-21.92L21.28-10.20L19.80-10.20Q19.56-11.80 19.16-12.76Q18.76-13.72 17.88-14.22Q17-14.72 15.50-14.86Q14-15 11.48-15L11.48-15L11.48-6.76Q11.48-5.48 11.82-4.60Q12.16-3.72 12.96-3.18Q13.76-2.64 15.08-2.42Q16.40-2.20 18.32-2.20L18.32-2.20Q20.60-2.20 22.18-2.52Q23.76-2.84 24.80-3.64Q25.84-4.44 26.48-5.78Q27.12-7.12 27.56-9.16L27.56-9.16L29.16-9.16L28.52 0L1.40 0L1.40-1.60Q2.72-1.64 3.56-1.84Q4.40-2.04 4.84-2.52Q5.28-3 5.44-3.88Q5.60-4.76 5.60-6.16L5.60-6.16L5.60-24.64Q5.60-26.04 5.46-26.90Q5.32-27.76 4.92-28.26Q4.52-28.76 3.78-28.94Q3.04-29.12 1.84-29.20L1.84-29.20L1.84-30.80L27.12-30.80L27.40-22.96L25.68-22.96Q25.44-24.64 24.92-25.74Q24.40-26.84 23.48-27.50Q22.56-28.16 21.10-28.42Q19.64-28.68 17.52-28.68L17.52-28.68L13-28.68Q11.96-28.68 11.72-28.42Q11.48-28.16 11.48-27.20L11.48-27.20Z M42.88-8.12L42.88-6.20Q42.88-4.64 43.02-3.74Q43.16-2.84 43.60-2.36Q44.04-1.88 44.88-1.74Q45.72-1.60 47.12-1.60L47.12-1.60L47.12 0L33.76 0L33.76-1.60Q34.96-1.68 35.68-1.84Q36.40-2 36.76-2.48Q37.12-2.96 37.22-3.86Q37.32-4.76 37.32-6.28L37.32-6.28L37.32-11.16Q37.32-13.64 37.20-15.12Q37.08-16.60 36.68-17.40Q36.28-18.20 35.54-18.46Q34.80-18.72 33.60-18.72L33.60-18.72L33.60-20.12L41.60-21.60L42.24-17L42.40-17Q43.48-19.12 45.24-20.36Q47-21.60 48.96-21.60L48.96-21.60Q50.48-21.60 51.44-20.84Q52.40-20.08 52.40-18.92L52.40-18.92Q52.40-17.64 51.66-16.76Q50.92-15.88 49.64-15.88L49.64-15.88Q49.04-15.88 48.56-16.12Q48.08-16.36 47.70-16.66Q47.32-16.96 46.94-17.22Q46.56-17.48 46.16-17.48L46.16-17.48Q45.40-17.48 44.72-16.48Q44.04-15.48 43.60-13.80L43.60-13.80Q43.28-12.60 43.08-11.10Q42.88-9.60 42.88-8.12L42.88-8.12Z M64.76-21.60L64.76-6.56Q64.76-4.96 64.88-4Q65-3.04 65.36-2.52Q65.72-2 66.40-1.82Q67.08-1.64 68.24-1.60L68.24-1.60L68.24 0L55.64 0L55.64-1.60Q56.76-1.64 57.46-1.86Q58.16-2.08 58.54-2.58Q58.92-3.08 59.06-3.98Q59.20-4.88 59.20-6.28L59.20-6.28L59.20-11.20Q59.20-13.52 59.12-15.02Q59.04-16.52 58.92-17.08L58.92-17.08Q58.72-18.08 58.02-18.40Q57.32-18.72 55.48-18.72L55.48-18.72L55.48-20.08L64.76-21.60ZM58.88-30.08L58.88-30.08Q58.88-31.40 59.78-32.30Q60.68-33.20 61.96-33.20L61.96-33.20Q63.28-33.20 64.18-32.30Q65.08-31.40 65.08-30.08L65.08-30.08Q65.08-28.80 64.18-27.90Q63.28-27 61.96-27L61.96-27Q60.68-27 59.78-27.90Q58.88-28.80 58.88-30.08Z M91-4.84L92.04-3.32Q90.52-1.64 88.26-0.72Q86 0.20 83.36 0.20L83.36 0.20Q80.92 0.20 78.92-0.58Q76.92-1.36 75.48-2.76Q74.04-4.16 73.26-6.14Q72.48-8.12 72.48-10.52L72.48-10.52Q72.48-13 73.32-15.04Q74.16-17.08 75.68-18.54Q77.20-20 79.32-20.80Q81.44-21.60 84-21.60L84-21.60Q85.80-21.60 87.34-21.24Q88.88-20.88 89.98-20.24Q91.08-19.60 91.72-18.74Q92.36-17.88 92.36-16.88L92.36-16.88Q92.36-15.72 91.70-15.04Q91.04-14.36 89.92-14.36L89.92-14.36Q89-14.36 88.30-14.84Q87.60-15.32 86.92-16.40L86.92-16.40Q86.32-17.36 85.90-17.92Q85.48-18.48 85.12-18.78Q84.76-19.08 84.40-19.18Q84.04-19.28 83.52-19.28L83.52-19.28Q81.20-19.28 79.92-17.12Q78.64-14.96 78.64-11.08L78.64-11.08Q78.64-6.92 80.18-4.68Q81.72-2.44 84.60-2.44L84.60-2.44Q86.24-2.44 87.88-3.06Q89.52-3.68 91-4.84L91-4.84Z M123.28-23.08L123.28-23.08Q123.28-19.76 121.36-17.52Q119.44-15.28 115.24-14.52L115.24-14.52L124.52-3.88Q125.48-2.76 126.80-2.18Q128.12-1.60 129.48-1.60L129.48-1.60L129.48 0L120 0L110.08-12.16Q109.08-13.36 108.34-13.78Q107.60-14.20 106.96-14.20L106.96-14.20L106.96-6.36Q106.96-4.88 107.16-3.94Q107.36-3 107.96-2.48Q108.56-1.96 109.70-1.78Q110.84-1.60 112.76-1.60L112.76-1.60L112.76 0L96.88 0L96.88-1.60Q98.20-1.60 99.02-1.78Q99.84-1.96 100.30-2.46Q100.76-2.96 100.92-3.86Q101.08-4.76 101.08-6.16L101.08-6.16L101.08-24.64Q101.08-26.04 100.96-26.90Q100.84-27.76 100.44-28.26Q100.04-28.76 99.30-28.94Q98.56-29.12 97.32-29.20L97.32-29.20L97.32-30.80L111.16-30.80Q116.96-30.80 120.12-28.76Q123.28-26.72 123.28-23.08ZM106.96-27.88L106.96-16.60L109.56-16.60Q113.32-16.60 115.18-18.06Q117.04-19.52 117.04-22.88L117.04-22.88Q117.04-25.44 115.48-27Q113.92-28.56 111.16-28.56L111.16-28.56L107.68-28.56Q106.96-28.56 106.96-27.88L106.96-27.88Z M142.84-21.60L142.84-21.60Q145.24-21.60 147.38-20.78Q149.52-19.96 151.14-18.52Q152.76-17.08 153.70-15.10Q154.64-13.12 154.64-10.76L154.64-10.76Q154.64-8.32 153.70-6.28Q152.76-4.24 151.14-2.76Q149.52-1.28 147.38-0.44Q145.24 0.40 142.84 0.40L142.84 0.40Q140.48 0.40 138.36-0.42Q136.24-1.24 134.64-2.72Q133.04-4.20 132.12-6.26Q131.20-8.32 131.20-10.76L131.20-10.76Q131.20-13.12 132.12-15.12Q133.04-17.12 134.64-18.56Q136.24-20 138.36-20.80Q140.48-21.60 142.84-21.60ZM142.84-19.28L142.84-19.28Q141.64-19.28 140.64-18.66Q139.64-18.04 138.94-16.92Q138.24-15.80 137.86-14.22Q137.48-12.64 137.48-10.72L137.48-10.72Q137.48-8.72 137.86-7.12Q138.24-5.52 138.94-4.40Q139.64-3.28 140.62-2.66Q141.60-2.04 142.84-2.04L142.84-2.04Q144.08-2.04 145.10-2.66Q146.12-3.28 146.84-4.42Q147.56-5.56 147.96-7.16Q148.36-8.76 148.36-10.72L148.36-10.72Q148.36-12.64 147.96-14.20Q147.56-15.76 146.84-16.90Q146.12-18.04 145.10-18.66Q144.08-19.28 142.84-19.28Z M162.40-1.40L161.52 0L160.28 0L160.28-7.28L161.96-7.28Q162.64-4.40 163.92-3.08Q165.20-1.76 167.24-1.76L167.24-1.76Q168.72-1.76 169.54-2.38Q170.36-3 170.36-4.08L170.36-4.08Q170.36-5.20 169.36-6.26Q168.36-7.32 166.12-8.52L166.12-8.52Q163.08-10.16 161.76-11.78Q160.44-13.40 160.44-15.44L160.44-15.44Q160.44-16.76 160.94-17.90Q161.44-19.04 162.30-19.88Q163.16-20.72 164.36-21.18Q165.56-21.64 166.96-21.64L166.96-21.64Q168.20-21.64 169.42-21.28Q170.64-20.92 171.56-20.28L171.56-20.28L172.28-21.24L173.32-21.24L173.32-15.20L171.76-15.20Q170.84-17.48 169.86-18.48Q168.88-19.48 167.48-19.48L167.48-19.48Q166.36-19.48 165.70-18.88Q165.04-18.28 165.04-17.28L165.04-17.28Q165.04-16.16 166.02-15.16Q167.00-14.16 169.28-12.96L169.28-12.96Q170.88-12.08 172.04-11.24Q173.20-10.40 173.92-9.54Q174.64-8.68 174.98-7.74Q175.32-6.80 175.32-5.72L175.32-5.72Q175.32-4.32 174.80-3.20Q174.28-2.08 173.32-1.28Q172.36-0.48 171.02-0.04Q169.68 0.40 168.04 0.40L168.04 0.40Q166.32 0.40 164.84-0.06Q163.36-0.52 162.40-1.40L162.40-1.40Z M183.04-1.40L182.16 0L180.92 0L180.92-7.28L182.60-7.28Q183.28-4.40 184.56-3.08Q185.84-1.76 187.88-1.76L187.88-1.76Q189.36-1.76 190.18-2.38Q191.00-3 191.00-4.08L191.00-4.08Q191.00-5.20 190.00-6.26Q189.00-7.32 186.76-8.52L186.76-8.52Q183.72-10.16 182.40-11.78Q181.08-13.40 181.08-15.44L181.08-15.44Q181.08-16.76 181.58-17.90Q182.08-19.04 182.94-19.88Q183.80-20.72 185.00-21.18Q186.20-21.64 187.60-21.64L187.60-21.64Q188.84-21.64 190.06-21.28Q191.28-20.92 192.20-20.28L192.20-20.28L192.92-21.24L193.96-21.24L193.96-15.20L192.40-15.20Q191.48-17.48 190.50-18.48Q189.52-19.48 188.12-19.48L188.12-19.48Q187.00-19.48 186.34-18.88Q185.68-18.28 185.68-17.28L185.68-17.28Q185.68-16.16 186.66-15.16Q187.64-14.16 189.92-12.96L189.92-12.96Q191.52-12.08 192.68-11.24Q193.84-10.40 194.56-9.54Q195.28-8.68 195.62-7.74Q195.96-6.80 195.96-5.72L195.96-5.72Q195.96-4.32 195.44-3.20Q194.92-2.08 193.96-1.28Q193.00-0.48 191.66-0.04Q190.32 0.40 188.68 0.40L188.68 0.40Q186.96 0.40 185.48-0.06Q184.00-0.52 183.04-1.40L183.04-1.40Z M201.56-2.56L201.56-2.56Q201.56-3.84 202.42-4.74Q203.28-5.64 204.56-5.64L204.56-5.64Q205.88-5.64 206.76-4.74Q207.64-3.84 207.64-2.56L207.64-2.56Q207.64-1.32 206.76-0.46Q205.88 0.40 204.56 0.40L204.56 0.40Q203.28 0.40 202.42-0.46Q201.56-1.32 201.56-2.56Z M220.92-4.32L220.92-4.32Q222.00-4.24 222.82-4.16Q223.64-4.08 224.38-3.98Q225.12-3.88 225.86-3.78Q226.60-3.68 227.44-3.56L227.44-3.56Q230.56-3.12 232.34-1.22Q234.12 0.68 234.12 3.48L234.12 3.48Q234.12 6.88 231.32 8.64Q228.52 10.40 223.08 10.40L223.08 10.40Q218.08 10.40 215.38 8.94Q212.68 7.48 212.68 4.80L212.68 4.80Q212.68 2.72 213.76 1.66Q214.84 0.60 216.48 0.60L216.48 0.60Q217.52 0.60 218.50 1.02Q219.48 1.44 220.16 2.24L220.16 2.24Q219.12 2.44 218.46 3.18Q217.80 3.92 217.80 4.92L217.80 4.92Q217.80 6.52 219.22 7.38Q220.64 8.24 223.40 8.24L223.40 8.24Q229.40 8.24 229.40 4.44L229.40 4.44Q229.40 3.08 228.50 2.10Q227.60 1.12 225.92 0.92L225.92 0.92L218.92-0.04Q214.48-0.64 214.48-4L214.48-4Q214.48-5.64 215.54-6.68Q216.60-7.72 218.56-8.12L218.56-8.12L218.56-8.28Q217.64-8.64 216.90-9.28Q216.16-9.92 215.60-10.76Q215.04-11.60 214.74-12.58Q214.44-13.56 214.44-14.60L214.44-14.60Q214.44-16.08 215.06-17.38Q215.68-18.68 216.78-19.60Q217.88-20.52 219.38-21.06Q220.88-21.60 222.64-21.60L222.64-21.60Q224.36-21.60 226.00-21.08Q227.64-20.56 228.80-19.64L228.80-19.64Q229.72-20.20 230.40-20.58Q231.08-20.96 231.66-21.18Q232.24-21.40 232.72-21.50Q233.20-21.60 233.68-21.60L233.68-21.60Q235.20-21.60 236.14-20.92Q237.08-20.24 237.08-19.12L237.08-19.12Q237.08-18.28 236.56-17.74Q236.04-17.20 235.20-17.20L235.20-17.20Q234.60-17.20 234.24-17.46Q233.88-17.72 233.54-18.06Q233.20-18.40 232.84-18.66Q232.48-18.92 231.88-18.92L231.88-18.92Q231.04-18.92 230.28-17.84L230.28-17.84Q230.68-17.16 230.84-16.38Q231.00-15.60 231.00-14.56L231.00-14.56Q231.00-13.04 230.52-11.76Q230.04-10.48 229.02-9.50Q228.00-8.52 226.40-7.84Q224.80-7.16 222.52-6.92L222.52-6.92Q220.60-6.72 219.86-6.40Q219.12-6.08 219.12-5.44L219.12-5.44Q219.12-4.48 220.92-4.32ZM222.84-9.20L222.84-9.20Q224.12-9.20 224.84-10.56Q225.56-11.92 225.56-14.36L225.56-14.36Q225.56-16.84 224.84-18.18Q224.12-19.52 222.80-19.52L222.80-19.52Q221.44-19.52 220.64-18.16Q219.84-16.80 219.84-14.44L219.84-14.44Q219.84-12.04 220.66-10.62Q221.48-9.20 222.84-9.20Z M248.48-21.60L248.48-6.56Q248.48-4.96 248.60-4Q248.72-3.04 249.08-2.52Q249.44-2 250.12-1.82Q250.80-1.64 251.96-1.60L251.96-1.60L251.96 0L239.36 0L239.36-1.60Q240.48-1.64 241.18-1.86Q241.88-2.08 242.26-2.58Q242.64-3.08 242.78-3.98Q242.92-4.88 242.92-6.28L242.92-6.28L242.92-11.20Q242.92-13.52 242.84-15.02Q242.76-16.52 242.64-17.08L242.64-17.08Q242.44-18.08 241.74-18.40Q241.04-18.72 239.20-18.72L239.20-18.72L239.20-20.08L248.48-21.60ZM242.60-30.08L242.60-30.08Q242.60-31.40 243.50-32.30Q244.40-33.20 245.68-33.20L245.68-33.20Q247.00-33.20 247.90-32.30Q248.80-31.40 248.80-30.08L248.80-30.08Q248.80-28.80 247.90-27.90Q247.00-27 245.68-27L245.68-27Q244.40-27 243.50-27.90Q242.60-28.80 242.60-30.08Z M258.56-19L255.64-19L255.64-20.80Q258.04-21.48 259.66-22.86Q261.28-24.24 262.08-26.04L262.08-26.04L264.12-26.04L264.12-21.20L268.72-21.20L268.72-19L264.12-19L264.12-6.72Q264.12-4.24 264.66-3.20Q265.20-2.16 266.48-2.16L266.48-2.16Q268.04-2.16 268.84-3.60L268.84-3.60L269.68-2.44Q268.56 0.40 264.40 0.40L264.40 0.40Q261.64 0.40 260.10-0.88Q258.56-2.16 258.56-4.48L258.56-4.48L258.56-19Z M274.08-2.56L274.08-2.56Q274.08-3.84 274.94-4.74Q275.80-5.64 277.08-5.64L277.08-5.64Q278.40-5.64 279.28-4.74Q280.16-3.84 280.16-2.56L280.16-2.56Q280.16-1.32 279.28-0.46Q278.40 0.40 277.08 0.40L277.08 0.40Q275.80 0.40 274.94-0.46Q274.08-1.32 274.08-2.56Z M294.60-21.60L294.60-6.56Q294.60-4.96 294.72-4Q294.84-3.04 295.20-2.52Q295.56-2 296.24-1.82Q296.92-1.64 298.08-1.60L298.08-1.60L298.08 0L285.48 0L285.48-1.60Q286.60-1.64 287.30-1.86Q288.00-2.08 288.38-2.58Q288.76-3.08 288.90-3.98Q289.04-4.88 289.04-6.28L289.04-6.28L289.04-11.20Q289.04-13.52 288.96-15.02Q288.88-16.52 288.76-17.08L288.76-17.08Q288.56-18.08 287.86-18.40Q287.16-18.72 285.32-18.72L285.32-18.72L285.32-20.08L294.60-21.60ZM288.72-30.08L288.72-30.08Q288.72-31.40 289.62-32.30Q290.52-33.20 291.80-33.20L291.80-33.20Q293.12-33.20 294.02-32.30Q294.92-31.40 294.92-30.08L294.92-30.08Q294.92-28.80 294.02-27.90Q293.12-27 291.80-27L291.80-27Q290.52-27 289.62-27.90Q288.72-28.80 288.72-30.08Z M313.88-21.60L313.88-21.60Q316.28-21.60 318.42-20.78Q320.56-19.96 322.18-18.52Q323.80-17.08 324.74-15.10Q325.68-13.12 325.68-10.76L325.68-10.76Q325.68-8.32 324.74-6.28Q323.80-4.24 322.18-2.76Q320.56-1.28 318.42-0.44Q316.28 0.40 313.88 0.40L313.88 0.40Q311.52 0.40 309.40-0.42Q307.28-1.24 305.68-2.72Q304.08-4.20 303.16-6.26Q302.24-8.32 302.24-10.76L302.24-10.76Q302.24-13.12 303.16-15.12Q304.08-17.12 305.68-18.56Q307.28-20 309.40-20.80Q311.52-21.60 313.88-21.60ZM313.88-19.28L313.88-19.28Q312.68-19.28 311.68-18.66Q310.68-18.04 309.98-16.92Q309.28-15.80 308.90-14.22Q308.52-12.64 308.52-10.72L308.52-10.72Q308.52-8.72 308.90-7.12Q309.28-5.52 309.98-4.40Q310.68-3.28 311.66-2.66Q312.64-2.04 313.88-2.04L313.88-2.04Q315.12-2.04 316.14-2.66Q317.16-3.28 317.88-4.42Q318.60-5.56 319.00-7.16Q319.40-8.76 319.40-10.72L319.40-10.72Q319.40-12.64 319.00-14.20Q318.60-15.76 317.88-16.90Q317.16-18.04 316.14-18.66Q315.12-19.28 313.88-19.28Z"/></g>
</svg>
</g><g opacity="1" transform="rotate(0 190.539 194.5946)">
<svg width="185.9402" height="170.1757" x="190.539" y="194.5946" version="1.1" preserveAspectRatio="none" viewBox="4 7.799999237060547 92 84.19999694824219">
  <g transform="matrix(1 0 0 1 0 0)" class="icon1"><switch><g><path d="M48,67v-4h24.2c2.9,0,4.8-2.3,4.8-5.2V46h16v-1.9c0-6.4-7.2-11.5-16.5-11.5S60,37.7,60,44.1V46h7v7H48v-4h6.2    c2.9,0,4.8-2.5,4.8-5.4V32h31v-2.4C90,17.4,74.7,7.8,55.4,7.8c-12.6,0-24,4.2-30.1,11.1c-1.8-0.5-3.6-0.8-5.6-0.8    c-8.8,0-15.7,5-15.7,11.5V32h8v15.1c0,2.9,2.4,4.9,5.3,4.9H27v15H4v11.2C4,85.9,10.6,92,18.3,92h63.8C89.9,92,96,85.9,96,78.2V67    H48z M64.9,42c1.5-3,6.4-5.5,12-5.5S87.5,39,89,42H77.5H66.9H64.9z M55.3,12c15.6,0,28.5,7,30.2,16H35.1c0,0,0-0.3,0-0.3    c-0.1-0.3-0.1-0.6-0.2-0.8c0-0.1-0.1-0.2-0.1-0.3c-0.1-0.3-0.2-0.6-0.4-0.9c0,0,0-0.1,0-0.1c-1-2-2.8-3.7-5.1-4.9    C34.7,15.3,44.6,12,55.3,12z M19.6,22.3c2.1,0,4.2,0.3,5.9,1c0.3,0.1,0.6,0.2,0.8,0.3c0.1,0.1,0.3,0.1,0.4,0.2    c0.3,0.1,0.5,0.3,0.8,0.4c0.2,0.1,0.3,0.2,0.5,0.3c0.2,0.1,0.4,0.3,0.6,0.4c0.2,0.1,0.3,0.3,0.5,0.4c0.1,0.1,0.3,0.2,0.4,0.4    c0.1,0.1,0.2,0.2,0.3,0.4c0.2,0.2,0.3,0.4,0.5,0.6c0.1,0.1,0.1,0.4,0.2,0.5c0.2,0.2,0.3-0.1,0.4,0.9H8.3    C9.7,25,14.3,22.3,19.6,22.3z M31.3,32h4H49v6H37.4c-0.2,0-5.6-0.2-7.6,4H23V32H31.3z M17.3,48c-0.7,0-1.3-0.2-1.3-0.9V32h3v14    h12.9l0.6-1.1c1.1-1.7,3-2.9,4.7-2.9h0.1h0.6H53V32h2v11.6c0,0.7-0.1,1.4-0.8,1.4H42.9c-1.1,0-2,0.9-2,2s0.9,2,2,2H44v4h-1.2    c-1.1,0-2,0.9-2,2s0.9,2,2,2H71V46h2v11.8c0,0.7-0.1,1.2-0.8,1.2H42.8c-1.1,0-2,0.9-2,2s0.9,2,2,2H44v4H31V48H17.3z M92,71v1H8v-1    H92z M82.2,88H18.3C12.8,88,8,83.7,8,78.2V76h84v2.2C92,83.7,87.7,88,82.2,88z"></path></g></switch></g>
</svg>
</g></svg></svg>